# xmcd
#
# Track frame offsets:
#	150
#	13886
#	27149
#	37107
#	48293
#	56216
#	65738
#	73988
#	84348
#	99586
#	115088
#	130092
#	142487
#	156817
#	167454
#	177650
#	190699
#	201856
#	221335
#	233304
#	247992
#	260668
#	276415
#	283863
#	297254
#	310591
#	320783
#	331783
#	341187
#	349492
#
# Disc length: 4798 seconds
#
# Revision: 0
# Processed by: cddbd v1.5.2PL0 Copyright (c) Steve Scherf et al.
# Submitted via: EZCDAudioConverter 7.0.6.1
#
DISCID=da12bc1e
DTITLE=I Said, She Said, Ah Cid 1/3
DYEAR=1900
DGENRE=
TTITLE0=The Animated Egg - A Love Built On Sand
TTITLE1=The Animated Egg - Inside Looking Out
TTITLE2=The Animated Egg - I Said, She Said, Ah Cid
TTITLE3=The Animated Egg - "T"omorrow
TTITLE4=The Animated Egg - Sure Listic
TTITLE5=The Animated Egg - Sippin' And Trippin'
TTITLE6=The Animated Egg - Dark
TTITLE7=The Animated Egg - Down, Down And Gone
TTITLE8=The Animated Egg - Sock It My Way
TTITLE9=The Animated Egg - That's How It Is
TTITLE10=101 Strings - Ode To Billie Joe
TTITLE11=101 Strings - I'm A Man
TTITLE12=101 Strings - Karma Sitar
TTITLE13=101 Strings - California Dreamin'
TTITLE14=101 Strings - Stone Baroque
TTITLE15=101 Strings - San Francisco (Flowers In Your Hair)
TTITLE16=101 Strings - A Whiter Shade Of Pale
TTITLE17=101 Strings - Blues For The Guru
TTITLE18=101 Strings - Never My Love
TTITLE19=101 Strings - Strings For Ravi
TTITLE20=101 Strings - Flameout
TTITLE21=101 Strings - Re-Entry To Mog
TTITLE22=101 Strings - Space Odyssey
TTITLE23=101 Strings - Astral Freakout
TTITLE24=101 Strings - Orbit Fantasy
TTITLE25=101 Strings - Barrier X-69
TTITLE26=101 Strings - A Disappointing Love With A Desensitized Robot
TTITLE27=101 Strings - Trippin' On Lunar 07
TTITLE28=101 Strings - Where Were You In 192?
TTITLE29=101 Strings - A Bad Trip Back To '69
EXTD=
EXTT0=
EXTT1=
EXTT2=
EXTT3=
EXTT4=
EXTT5=
EXTT6=
EXTT7=
EXTT8=
EXTT9=
EXTT10=
EXTT11=
EXTT12=
EXTT13=
EXTT14=
EXTT15=
EXTT16=
EXTT17=
EXTT18=
EXTT19=
EXTT20=
EXTT21=
EXTT22=
EXTT23=
EXTT24=
EXTT25=
EXTT26=
EXTT27=
EXTT28=
EXTT29=
PLAYORDER=
